<svg xmlns="http://www.w3.org/2000/svg" viewBox="0 0 320 72" role="img" aria-label="G-SERVICES">
  <defs>
    <linearGradient id="gsPin" x1="0" y1="0" x2="1" y2="1">
      <stop offset="0" stop-color="#2E5C8A"/>
      <stop offset="1" stop-color="#1F3A5F"/>
    </linearGradient>
  </defs>
  <!-- Location pin carrying a "G" aperture -->
  <path fill="url(#gsPin)" d="M36 4C21.6 4 10 15.6 10 30c0 18.5 22.3 35.6 24.3 37.1a2.8 2.8 0 0 0 3.4 0C39.7 65.6 62 48.5 62 30 62 15.6 50.4 4 36 4Z"/>
  <path fill="#C9A227" d="M36 16.5A13.5 13.5 0 1 0 49.5 30h-11v5h5.2a7.8 7.8 0 1 1-1.9-7.9l3.9-3.9A13.4 13.4 0 0 0 36 16.5Z"/>
  <circle cx="36" cy="30" r="3.1" fill="#fff"/>
  <text x="78" y="37" font-family="Poppins, Montserrat, Arial, sans-serif" font-size="26" font-weight="700" fill="#1F3A5F">G-SERVICES</text>
  <text x="79" y="56" font-family="Inter, Arial, sans-serif" font-size="11.5" letter-spacing="2.4" fill="#2E5C8A">SERVICES &amp; PRODUITS GÉOLOCALISÉS</text>
</svg>
